HIERARCHY
ROOT Hips
{
	OFFSET -3.958830 18.904000 13.208200
	CHANNELS 6 Xposition Yposition Zposition Zrotation Yrotation Xrotation 
	JOINT LHipJoint
	{
		OFFSET 0.000000 0.000000 0.000000
		CHANNELS 3 Zrotation Yrotation Xrotation
		JOINT LeftUpLeg
		{
			OFFSET 1.800000 -1.400000 0.085000
			CHANNELS 3 Zrotation Yrotation Xrotation
			JOINT LeftLeg
			{
				OFFSET 2.215000 -6.000000 0.000000
				CHANNELS 3 Zrotation Yrotation Xrotation
				JOINT LeftFoot
				{
					OFFSET 2.500000 -6.900000 0.000000
					CHANNELS 3 Zrotation Yrotation Xrotation
					JOINT LeftToeBase
					{
						OFFSET 0.200000 -0.500000 1.950000
						CHANNELS 3 Zrotation Yrotation Xrotation
						End Site
						{
							OFFSET 0.000000 0.000000 0.000000
						}
					}
				}
			}
		}
	}
	JOINT RHipJoint
	{
		OFFSET 0.000000 0.000000 0.000000
		CHANNELS 3 Zrotation Yrotation Xrotation
		JOINT RightUpLeg
		{
			OFFSET -1.800000 -1.400000 0.085000
			CHANNELS 3 Zrotation Yrotation Xrotation
			JOINT RightLeg
			{
				OFFSET -2.215000 -6.000000 0.000000
				CHANNELS 3 Zrotation Yrotation Xrotation
				JOINT RightFoot
				{
					OFFSET -2.500000 -6.900000 0.000000
					CHANNELS 3 Zrotation Yrotation Xrotation
					JOINT RightToeBase
					{
						OFFSET -0.200000 -0.500000 1.950000
						CHANNELS 3 Zrotation Yrotation Xrotation
						End Site
						{
							OFFSET 0.000000 0.000000 0.000000
						}
					}
				}
			}
		}
	}
	JOINT LowerBack
	{
		OFFSET 0.000000 0.000000 0.000000
		CHANNELS 3 Zrotation Yrotation Xrotation
		JOINT Spine
		{
			OFFSET -0.087000 1.940000 -0.288900
			CHANNELS 3 Zrotation Yrotation Xrotation
			JOINT Spine1
			{
				OFFSET 0.000000 1.950000 0.060000
				CHANNELS 3 Zrotation Yrotation Xrotation
				JOINT Neck
				{
					OFFSET 0.000000 0.000000 0.000000
					CHANNELS 3 Zrotation Yrotation Xrotation
					JOINT Neck1
					{
						OFFSET 0.000000 1.600000 0.340000
						CHANNELS 3 Zrotation Yrotation Xrotation
						JOINT Head
						{
							OFFSET 0.000000 1.667000 -0.240000
							CHANNELS 3 Zrotation Yrotation Xrotation
							End Site
							{
								OFFSET 0.000000 0.000000 0.000000
							}
						}
					}
				}
				JOINT LeftShoulder
				{
					OFFSET 0.000000 0.000000 0.000000
					CHANNELS 3 Zrotation Yrotation Xrotation
					JOINT LeftArm
					{
						OFFSET 2.700000 1.550000 -0.730000
						CHANNELS 3 Zrotation Yrotation Xrotation
						JOINT LeftForeArm
						{
							OFFSET 5.450000 0.000000 0.000000
							CHANNELS 3 Zrotation Yrotation Xrotation
							JOINT LeftHand
							{
								OFFSET 3.450000 0.000000 0.000000
								CHANNELS 3 Zrotation Yrotation Xrotation
								JOINT LeftHandIndex1
								{
									OFFSET 0.750000 0.000000 0.000000
									CHANNELS 3 Zrotation Yrotation Xrotation
									End Site
									{
										OFFSET 0.000000 0.000000 0.000000
									}
								}
							}
						}
					}
				}
				JOINT RightShoulder
				{
					OFFSET 0.000000 0.000000 0.000000
					CHANNELS 3 Zrotation Yrotation Xrotation
					JOINT RightArm
					{
						OFFSET -2.700000 1.550000 -0.730000
						CHANNELS 3 Zrotation Yrotation Xrotation
						JOINT RightForeArm
						{
							OFFSET -5.450000 0.000000 0.000000
							CHANNELS 3 Zrotation Yrotation Xrotation
							JOINT RightHand
							{
								OFFSET -3.450000 0.000000 0.000000
								CHANNELS 3 Zrotation Yrotation Xrotation
								JOINT RightHandIndex1
								{
									OFFSET -0.750000 0.000000 0.000000
									CHANNELS 3 Zrotation Yrotation Xrotation
									End Site
									{
										OFFSET 0.000000 0.000000 0.000000
									}
								}
							}
						}
					}
				}
			}
		}
	}
}
MOTION
Frames: 7
Frame Time: 0.016667
7.082280 15.678290 -2.372220 25.831894 27.145723 17.674230 -15.399479 11.044084 4.641599 -6.759634 -10.750252 -17.924077 -30.846769 30.009702 55.876185 2.522488 14.294742 -0.108751 0.271340 0.186610 0.203520 18.564581 -7.564874 4.827470 -1.982834 11.629104 -54.609871 5.716597 -9.606775 48.023574 -0.709580 -6.438668 1.837733 0.119940 -0.154560 0.075320 -3.744491 -2.872174 -9.707040 20.668151 -10.730632 36.133779 -1.732389 -4.192093 4.082132 3.995353 -3.942209 -8.651257 -12.873506 -1.584961 58.523353 0.649070 -10.340290 -5.054980 -28.182744 -8.567856 3.573853 -47.041362 -4.598328 -8.938922 -53.646068 -65.036567 28.033827 -3.439143 3.484243 0.283430 -0.181410 0.165610 -0.019800 20.841255 12.419674 3.003301 23.477939 8.708056 -10.920036 -12.264929 41.171220 -3.381506 2.309241 -1.229579 0.030160 0.036150 -0.016050 -0.042590 
7.177930 15.580640 -2.404380 24.949423 25.087406 16.544738 -15.443076 10.604226 5.015466 -0.930864 -11.933318 -25.681217 -33.996673 36.912152 62.004945 2.980933 16.169650 -0.583540 0.294820 0.225190 0.204690 18.570566 -7.009469 5.050887 -3.699394 13.659173 -56.058645 6.843288 -11.129051 52.304446 -0.933321 -7.373564 1.542521 0.133400 -0.169030 0.067260 -3.570457 -3.003319 -10.023731 20.767469 -10.446378 41.916601 -3.061081 -2.177854 3.586347 4.763404 -4.315737 -9.298233 -14.146845 -0.805003 59.782780 2.146250 -11.122160 -6.083890 -32.142355 -11.829525 3.759049 -45.238459 -4.560557 -11.253166 -39.604391 -64.820245 18.681076 -3.306335 3.461770 0.302880 -0.211610 0.190750 -0.013160 22.948202 16.704118 4.657729 17.258748 8.206544 -10.527494 -14.324085 36.456646 -3.319270 2.360075 -1.227777 0.041630 0.046470 -0.028010 -0.029880 
7.276790 15.499750 -2.441460 24.026446 22.480511 15.136116 -15.473736 10.104788 5.515662 6.435800 -11.630336 -33.865953 -37.412443 43.376459 65.577394 3.279599 17.367860 -0.879752 0.333890 0.282340 0.211670 18.596267 -6.517022 5.139304 -6.214337 15.109529 -56.771541 9.580436 -13.514391 55.016535 -1.169472 -8.238138 1.273505 0.151300 -0.205740 0.059230 -3.472968 -3.046155 -10.300451 20.835818 -11.072883 48.967447 -5.021209 -0.615470 3.266649 5.366988 -5.976379 -10.540425 -18.814457 1.058588 59.393698 3.463480 -12.200270 -8.515060 -34.772429 -15.272590 4.179894 -43.983801 -4.434029 -13.666385 -26.602145 -64.858504 10.228830 -3.122389 3.446382 0.339130 -0.267160 0.235100 -0.004250 24.063901 21.793089 6.799161 10.917382 7.071561 -10.547691 -15.628589 32.524238 -2.992759 2.413656 -1.245354 0.062810 0.057800 -0.046380 -0.014570 
7.357380 15.422100 -2.460550 23.317680 19.685679 14.078402 -15.466713 9.625257 5.869939 12.143345 -10.122629 -38.464657 -37.651367 47.592710 68.931808 3.423909 18.025935 -1.048098 0.379810 0.342840 0.223450 18.669460 -6.192423 5.249946 -8.844705 16.402580 -57.719676 12.770304 -16.170781 57.242648 -1.414987 -9.126470 1.001716 0.182280 -0.234610 0.055540 -3.529255 -2.744025 -10.502980 20.501838 -11.602787 55.056098 -7.545004 0.504219 3.612345 6.002036 -7.096059 -11.552960 -22.298888 2.648268 59.741606 4.708180 -12.910300 -10.404910 -36.924862 -17.945852 4.535002 -42.117810 -5.316881 -15.433481 -12.159211 -66.435388 1.400134 -2.981085 3.405764 0.368510 -0.309910 0.270770 0.007760 24.793406 25.702778 8.108440 5.738852 8.329768 -10.057397 -15.318289 26.525611 -2.261317 2.504825 -1.230484 0.077730 0.067720 -0.064500 -0.003860 
7.396140 15.339790 -2.463550 23.856735 17.889221 13.435528 -15.446196 9.211648 6.143538 16.688742 -9.233458 -41.969082 -36.211855 47.540611 70.120372 3.407745 18.025000 -1.064113 0.401980 0.382030 0.197740 18.755320 -6.064638 5.306949 -11.683936 16.863442 -58.377436 15.652174 -18.563801 58.647790 -1.616497 -9.855785 0.797484 0.188010 -0.237030 0.044520 -3.656917 -2.296501 -10.653355 19.049540 -12.102136 62.130450 -9.856392 1.333100 3.762404 6.192129 -8.079549 -13.008065 -25.779535 3.653134 58.223832 7.595870 -14.055170 -12.140030 -37.790268 -21.237569 4.898382 -39.254474 -6.805104 -16.758576 0.284265 -66.985528 -6.040821 -2.868213 3.342083 0.379340 -0.351090 0.291460 0.036160 25.303774 29.798687 9.957780 1.230426 7.659296 -10.274627 -15.674675 21.477507 -1.885698 2.613582 -1.244004 0.098090 0.077870 -0.082070 0.029100 
7.430190 15.287230 -2.472110 25.321680 17.459988 12.915781 -15.385650 8.940654 6.203844 18.569306 -9.975403 -44.602580 -33.635232 43.522416 69.432317 3.242894 17.582669 -0.988090 0.401880 0.393980 0.156830 18.855693 -6.132294 5.360144 -15.584881 15.927610 -58.901965 19.524864 -21.431674 58.925700 -1.792045 -10.575856 0.597358 0.183420 -0.221210 0.033220 -3.875161 -1.774857 -10.697798 17.626964 -13.639554 68.972620 -12.141069 0.747961 3.938677 6.281697 -8.986023 -13.978266 -28.584703 3.745024 55.590579 9.858770 -15.332590 -13.376300 -37.803062 -24.109350 5.117264 -35.936607 -8.848390 -17.597392 12.880505 -66.713675 -12.934284 -2.839430 3.222050 0.366690 -0.373210 0.288580 0.063890 25.208074 32.966210 11.078386 -3.314318 7.900256 -10.414840 -15.434417 16.294831 -1.540238 2.744945 -1.208851 0.112320 0.087300 -0.089570 0.064350 
7.479310 15.243410 -2.495940 26.939117 18.014141 12.984096 -15.309634 8.695563 6.103218 19.006874 -11.574902 -47.690863 -29.783786 36.013202 66.288499 2.790767 16.365821 -0.750666 0.373470 0.360760 0.115710 18.990135 -6.169628 5.568874 -20.254145 14.509338 -60.546221 23.302962 -25.081699 60.217621 -2.018377 -11.569495 0.331718 0.170850 -0.181880 0.015200 -4.146085 -1.266864 -10.716329 17.139190 -16.371639 74.691270 -14.643184 -0.855248 4.367801 6.550875 -9.839996 -14.428950 -30.638829 3.138006 52.321407 11.030380 -16.413490 -14.317600 -36.949764 -26.216877 5.116908 -33.441305 -11.403889 -18.054961 26.496732 -66.334964 -20.140710 -2.926383 2.991004 0.357240 -0.372460 0.259780 0.077300 23.792563 35.008453 11.509582 -7.644456 8.693717 -10.277299 -14.127644 11.660012 -1.205431 2.851579 -1.084614 0.093230 0.118470 -0.073820 0.081620 
